<mxfile host="app.diagrams.net" modified="2024-06-11T21:24:03.941Z" agent="Mozilla/5.0 (Windows NT 10.0; Win64; x64; rv:126.0) Gecko/20100101 Firefox/126.0" etag="tK-RwrmE0bAo_Ge4d7La" version="24.5.3" type="device">
  <diagram id="C5RBs43oDa-KdzZeNtuy" name="Page-1">
    <mxGraphModel dx="2825" dy="1476" grid="0" gridSize="10" guides="1" tooltips="1" connect="1" arrows="1" fold="1" page="0" pageScale="1" pageWidth="827" pageHeight="1169" background="none" math="0" shadow="0">
      <root>
        <mxCell id="WIyWlLk6GJQsqaUBKTNV-0" />
        <mxCell id="WIyWlLk6GJQsqaUBKTNV-1" parent="WIyWlLk6GJQsqaUBKTNV-0" />
        <mxCell id="X6aHceMRcVpdjTT9wPh7-7" value="Agenda" style="swimlane;fontStyle=3;align=center;verticalAlign=top;childLayout=stackLayout;horizontal=1;startSize=26;horizontalStack=0;resizeParent=1;resizeLast=0;collapsible=1;marginBottom=0;rounded=1;shadow=0;strokeWidth=1;labelBackgroundColor=none;fillColor=#FAE5C7;strokeColor=#0F8B8D;fontColor=#143642;" parent="WIyWlLk6GJQsqaUBKTNV-1" vertex="1">
          <mxGeometry x="221" y="433" width="160" height="73" as="geometry">
            <mxRectangle x="230" y="140" width="160" height="26" as="alternateBounds" />
          </mxGeometry>
        </mxCell>
        <mxCell id="wbWh36v0nCZpc6Vmj600-40" value="&amp;lt;&amp;lt;pk&amp;gt;&amp;gt; id: Long" style="text;html=1;align=center;verticalAlign=middle;whiteSpace=wrap;rounded=1;labelBackgroundColor=none;fontColor=#143642;" parent="X6aHceMRcVpdjTT9wPh7-7" vertex="1">
          <mxGeometry y="26" width="160" height="20" as="geometry" />
        </mxCell>
        <mxCell id="wbWh36v0nCZpc6Vmj600-41" value="date: LocalDate" style="text;html=1;align=center;verticalAlign=middle;whiteSpace=wrap;rounded=1;labelBackgroundColor=none;fontColor=#143642;" parent="X6aHceMRcVpdjTT9wPh7-7" vertex="1">
          <mxGeometry y="46" width="160" height="20" as="geometry" />
        </mxCell>
        <mxCell id="X6aHceMRcVpdjTT9wPh7-13" value="Pet" style="swimlane;fontStyle=3;align=center;verticalAlign=top;childLayout=stackLayout;horizontal=1;startSize=26;horizontalStack=0;resizeParent=1;resizeLast=0;collapsible=1;marginBottom=0;rounded=1;shadow=0;strokeWidth=1;labelBackgroundColor=none;fillColor=#FAE5C7;strokeColor=#0F8B8D;fontColor=#143642;" parent="WIyWlLk6GJQsqaUBKTNV-1" vertex="1">
          <mxGeometry x="411" y="187" width="160" height="138" as="geometry">
            <mxRectangle x="230" y="140" width="160" height="26" as="alternateBounds" />
          </mxGeometry>
        </mxCell>
        <mxCell id="wbWh36v0nCZpc6Vmj600-48" value="&amp;lt;&amp;lt;pk&amp;gt;&amp;gt; id: Long" style="text;html=1;align=center;verticalAlign=middle;whiteSpace=wrap;rounded=1;labelBackgroundColor=none;fontColor=#143642;" parent="X6aHceMRcVpdjTT9wPh7-13" vertex="1">
          <mxGeometry y="26" width="160" height="20" as="geometry" />
        </mxCell>
        <mxCell id="wbWh36v0nCZpc6Vmj600-55" value="name: String" style="text;html=1;align=center;verticalAlign=middle;whiteSpace=wrap;rounded=1;labelBackgroundColor=none;fontColor=#143642;" parent="X6aHceMRcVpdjTT9wPh7-13" vertex="1">
          <mxGeometry y="46" width="160" height="20" as="geometry" />
        </mxCell>
        <mxCell id="wbWh36v0nCZpc6Vmj600-56" value="weight: Double" style="text;html=1;align=center;verticalAlign=middle;whiteSpace=wrap;rounded=1;labelBackgroundColor=none;fontColor=#143642;" parent="X6aHceMRcVpdjTT9wPh7-13" vertex="1">
          <mxGeometry y="66" width="160" height="20" as="geometry" />
        </mxCell>
        <mxCell id="wbWh36v0nCZpc6Vmj600-57" value="birthDate: LocalDate" style="text;html=1;align=center;verticalAlign=middle;whiteSpace=wrap;rounded=1;labelBackgroundColor=none;fontColor=#143642;" parent="X6aHceMRcVpdjTT9wPh7-13" vertex="1">
          <mxGeometry y="86" width="160" height="20" as="geometry" />
        </mxCell>
        <mxCell id="wbWh36v0nCZpc6Vmj600-63" value="description: String" style="text;html=1;align=center;verticalAlign=middle;whiteSpace=wrap;rounded=1;labelBackgroundColor=none;fontColor=#143642;" parent="X6aHceMRcVpdjTT9wPh7-13" vertex="1">
          <mxGeometry y="106" width="160" height="20" as="geometry" />
        </mxCell>
        <mxCell id="X6aHceMRcVpdjTT9wPh7-1" value="User" style="swimlane;fontStyle=3;align=center;verticalAlign=top;childLayout=stackLayout;horizontal=1;startSize=26;horizontalStack=0;resizeParent=1;resizeLast=0;collapsible=1;marginBottom=0;rounded=1;shadow=0;strokeWidth=1;labelBackgroundColor=none;fillColor=#FAE5C7;strokeColor=#0F8B8D;fontColor=#143642;" parent="WIyWlLk6GJQsqaUBKTNV-1" vertex="1">
          <mxGeometry x="-164" y="12" width="160" height="169" as="geometry">
            <mxRectangle x="230" y="140" width="160" height="26" as="alternateBounds" />
          </mxGeometry>
        </mxCell>
        <mxCell id="wbWh36v0nCZpc6Vmj600-16" value="&amp;lt;&amp;lt;pk&amp;gt;&amp;gt; id: Long" style="text;html=1;align=center;verticalAlign=middle;whiteSpace=wrap;rounded=1;labelBackgroundColor=none;fontColor=#143642;" parent="X6aHceMRcVpdjTT9wPh7-1" vertex="1">
          <mxGeometry y="26" width="160" height="20" as="geometry" />
        </mxCell>
        <mxCell id="wbWh36v0nCZpc6Vmj600-20" value="name: String" style="text;html=1;align=center;verticalAlign=middle;whiteSpace=wrap;rounded=1;labelBackgroundColor=none;fontColor=#143642;" parent="X6aHceMRcVpdjTT9wPh7-1" vertex="1">
          <mxGeometry y="46" width="160" height="20" as="geometry" />
        </mxCell>
        <mxCell id="wbWh36v0nCZpc6Vmj600-22" value="&lt;div&gt;email: String&lt;/div&gt;" style="text;html=1;align=center;verticalAlign=middle;whiteSpace=wrap;rounded=1;labelBackgroundColor=none;fontColor=#143642;" parent="X6aHceMRcVpdjTT9wPh7-1" vertex="1">
          <mxGeometry y="66" width="160" height="20" as="geometry" />
        </mxCell>
        <mxCell id="kqzMrpncI3JCj6efdYpk-11" value="phone: String" style="text;html=1;align=center;verticalAlign=middle;whiteSpace=wrap;rounded=1;labelBackgroundColor=none;fontColor=#143642;" vertex="1" parent="X6aHceMRcVpdjTT9wPh7-1">
          <mxGeometry y="86" width="160" height="20" as="geometry" />
        </mxCell>
        <mxCell id="kqzMrpncI3JCj6efdYpk-12" value="birthDate: LocalDate" style="text;html=1;align=center;verticalAlign=middle;whiteSpace=wrap;rounded=1;labelBackgroundColor=none;fontColor=#143642;" vertex="1" parent="X6aHceMRcVpdjTT9wPh7-1">
          <mxGeometry y="106" width="160" height="20" as="geometry" />
        </mxCell>
        <mxCell id="kqzMrpncI3JCj6efdYpk-13" value="cpfCnpj: String" style="text;html=1;align=center;verticalAlign=middle;whiteSpace=wrap;rounded=1;labelBackgroundColor=none;fontColor=#143642;" vertex="1" parent="X6aHceMRcVpdjTT9wPh7-1">
          <mxGeometry y="126" width="160" height="20" as="geometry" />
        </mxCell>
        <mxCell id="kqzMrpncI3JCj6efdYpk-14" value="password: String" style="text;html=1;align=center;verticalAlign=middle;whiteSpace=wrap;rounded=1;labelBackgroundColor=none;fontColor=#143642;" vertex="1" parent="X6aHceMRcVpdjTT9wPh7-1">
          <mxGeometry y="146" width="160" height="20" as="geometry" />
        </mxCell>
        <mxCell id="X6aHceMRcVpdjTT9wPh7-3" value="Client" style="swimlane;fontStyle=3;align=center;verticalAlign=top;childLayout=stackLayout;horizontal=1;startSize=26;horizontalStack=0;resizeParent=1;resizeLast=0;collapsible=1;marginBottom=0;rounded=1;shadow=0;strokeWidth=1;labelBackgroundColor=none;fillColor=#FAE5C7;strokeColor=#0F8B8D;fontColor=#143642;" parent="WIyWlLk6GJQsqaUBKTNV-1" vertex="1">
          <mxGeometry x="107" y="222" width="160" height="146" as="geometry">
            <mxRectangle x="230" y="140" width="160" height="26" as="alternateBounds" />
          </mxGeometry>
        </mxCell>
        <mxCell id="wbWh36v0nCZpc6Vmj600-21" value="&amp;lt;&amp;lt;pk&amp;gt;&amp;gt; id: Long" style="text;html=1;align=center;verticalAlign=middle;whiteSpace=wrap;rounded=1;labelBackgroundColor=none;fontColor=#143642;" parent="X6aHceMRcVpdjTT9wPh7-3" vertex="1">
          <mxGeometry y="26" width="160" height="20" as="geometry" />
        </mxCell>
        <mxCell id="kqzMrpncI3JCj6efdYpk-15" value="name: String" style="text;html=1;align=center;verticalAlign=middle;whiteSpace=wrap;rounded=1;labelBackgroundColor=none;fontColor=#143642;" vertex="1" parent="X6aHceMRcVpdjTT9wPh7-3">
          <mxGeometry y="46" width="160" height="20" as="geometry" />
        </mxCell>
        <mxCell id="kqzMrpncI3JCj6efdYpk-16" value="&lt;div&gt;email: String&lt;/div&gt;" style="text;html=1;align=center;verticalAlign=middle;whiteSpace=wrap;rounded=1;labelBackgroundColor=none;fontColor=#143642;" vertex="1" parent="X6aHceMRcVpdjTT9wPh7-3">
          <mxGeometry y="66" width="160" height="20" as="geometry" />
        </mxCell>
        <mxCell id="kqzMrpncI3JCj6efdYpk-17" value="phone: String" style="text;html=1;align=center;verticalAlign=middle;whiteSpace=wrap;rounded=1;labelBackgroundColor=none;fontColor=#143642;" vertex="1" parent="X6aHceMRcVpdjTT9wPh7-3">
          <mxGeometry y="86" width="160" height="20" as="geometry" />
        </mxCell>
        <mxCell id="kqzMrpncI3JCj6efdYpk-18" value="birthDate: LocalDate" style="text;html=1;align=center;verticalAlign=middle;whiteSpace=wrap;rounded=1;labelBackgroundColor=none;fontColor=#143642;" vertex="1" parent="X6aHceMRcVpdjTT9wPh7-3">
          <mxGeometry y="106" width="160" height="20" as="geometry" />
        </mxCell>
        <mxCell id="kqzMrpncI3JCj6efdYpk-19" value="cpf: String" style="text;html=1;align=center;verticalAlign=middle;whiteSpace=wrap;rounded=1;labelBackgroundColor=none;fontColor=#143642;" vertex="1" parent="X6aHceMRcVpdjTT9wPh7-3">
          <mxGeometry y="126" width="160" height="20" as="geometry" />
        </mxCell>
        <mxCell id="X6aHceMRcVpdjTT9wPh7-26" value="Service" style="swimlane;fontStyle=3;align=center;verticalAlign=top;childLayout=stackLayout;horizontal=1;startSize=26;horizontalStack=0;resizeParent=1;resizeLast=0;collapsible=1;marginBottom=0;rounded=1;shadow=0;strokeWidth=1;labelBackgroundColor=none;fillColor=#FAE5C7;strokeColor=#0F8B8D;fontColor=#143642;" parent="WIyWlLk6GJQsqaUBKTNV-1" vertex="1">
          <mxGeometry x="544" y="416" width="193" height="135.5" as="geometry">
            <mxRectangle x="230" y="140" width="160" height="26" as="alternateBounds" />
          </mxGeometry>
        </mxCell>
        <mxCell id="wbWh36v0nCZpc6Vmj600-42" value="&amp;lt;&amp;lt;pk&amp;gt;&amp;gt; id: Long" style="text;html=1;align=center;verticalAlign=middle;whiteSpace=wrap;rounded=1;labelBackgroundColor=none;fontColor=#143642;" parent="X6aHceMRcVpdjTT9wPh7-26" vertex="1">
          <mxGeometry y="26" width="193" height="20" as="geometry" />
        </mxCell>
        <mxCell id="wbWh36v0nCZpc6Vmj600-43" value="name: String" style="text;html=1;align=center;verticalAlign=middle;whiteSpace=wrap;rounded=1;labelBackgroundColor=none;fontColor=#143642;" parent="X6aHceMRcVpdjTT9wPh7-26" vertex="1">
          <mxGeometry y="46" width="193" height="20" as="geometry" />
        </mxCell>
        <mxCell id="wbWh36v0nCZpc6Vmj600-44" value="smallDogPrice: BigDecimal" style="text;html=1;align=center;verticalAlign=middle;whiteSpace=wrap;rounded=1;labelBackgroundColor=none;fontColor=#143642;" parent="X6aHceMRcVpdjTT9wPh7-26" vertex="1">
          <mxGeometry y="66" width="193" height="20" as="geometry" />
        </mxCell>
        <mxCell id="wbWh36v0nCZpc6Vmj600-45" value="mediumSizeDogPrice: BigDecimal" style="text;html=1;align=center;verticalAlign=middle;whiteSpace=wrap;rounded=1;labelBackgroundColor=none;fontColor=#143642;" parent="X6aHceMRcVpdjTT9wPh7-26" vertex="1">
          <mxGeometry y="86" width="193" height="27" as="geometry" />
        </mxCell>
        <mxCell id="wbWh36v0nCZpc6Vmj600-46" value="bigDogPrice: BigDecimal" style="text;html=1;align=center;verticalAlign=middle;whiteSpace=wrap;rounded=1;labelBackgroundColor=none;fontColor=#143642;" parent="X6aHceMRcVpdjTT9wPh7-26" vertex="1">
          <mxGeometry y="113" width="193" height="20" as="geometry" />
        </mxCell>
        <mxCell id="X6aHceMRcVpdjTT9wPh7-28" value="" style="endArrow=none;html=1;rounded=1;exitX=1;exitY=0.25;exitDx=0;exitDy=0;labelBackgroundColor=none;fontColor=default;strokeColor=#A8201A;entryX=0.001;entryY=0.112;entryDx=0;entryDy=0;entryPerimeter=0;" parent="WIyWlLk6GJQsqaUBKTNV-1" source="wbWh36v0nCZpc6Vmj600-41" target="wbWh36v0nCZpc6Vmj600-44" edge="1">
          <mxGeometry width="50" height="50" relative="1" as="geometry">
            <mxPoint x="402" y="536" as="sourcePoint" />
            <mxPoint x="551" y="496" as="targetPoint" />
          </mxGeometry>
        </mxCell>
        <mxCell id="X6aHceMRcVpdjTT9wPh7-44" value="" style="endArrow=none;html=1;rounded=1;entryX=0.5;entryY=1;entryDx=0;entryDy=0;exitX=0.25;exitY=0;exitDx=0;exitDy=0;labelBackgroundColor=none;fontColor=default;strokeColor=#A8201A;" parent="WIyWlLk6GJQsqaUBKTNV-1" source="WaDthbBKja6x3SG7VzEH-55" target="X6aHceMRcVpdjTT9wPh7-32" edge="1">
          <mxGeometry width="50" height="50" relative="1" as="geometry">
            <mxPoint x="174" y="592.5" as="sourcePoint" />
            <mxPoint x="427" y="567.98" as="targetPoint" />
          </mxGeometry>
        </mxCell>
        <mxCell id="X6aHceMRcVpdjTT9wPh7-47" value="" style="endArrow=none;html=1;rounded=1;entryX=0.5;entryY=0;entryDx=0;entryDy=0;labelBackgroundColor=none;fontColor=default;strokeColor=#A8201A;exitX=0.25;exitY=1;exitDx=0;exitDy=0;" parent="WIyWlLk6GJQsqaUBKTNV-1" source="X6aHceMRcVpdjTT9wPh7-3" target="X6aHceMRcVpdjTT9wPh7-32" edge="1">
          <mxGeometry width="50" height="50" relative="1" as="geometry">
            <mxPoint x="128" y="238" as="sourcePoint" />
            <mxPoint x="-32" y="349" as="targetPoint" />
          </mxGeometry>
        </mxCell>
        <mxCell id="X6aHceMRcVpdjTT9wPh7-59" value="Category" style="swimlane;fontStyle=3;align=center;verticalAlign=top;childLayout=stackLayout;horizontal=1;startSize=28;horizontalStack=0;resizeParent=1;resizeLast=0;collapsible=1;marginBottom=0;rounded=0;shadow=0;strokeWidth=1;swimlaneFillColor=#E6E6E6;labelBackgroundColor=none;fillColor=#FAE5C7;strokeColor=#0F8B8D;fontColor=#143642;" parent="WIyWlLk6GJQsqaUBKTNV-1" vertex="1">
          <mxGeometry x="-405" y="199.5" width="160" height="150" as="geometry">
            <mxRectangle x="-402" y="118" width="160" height="26" as="alternateBounds" />
          </mxGeometry>
        </mxCell>
        <mxCell id="X6aHceMRcVpdjTT9wPh7-65" value="VACCINE" style="text;html=1;align=center;verticalAlign=middle;whiteSpace=wrap;rounded=1;labelBackgroundColor=none;fontColor=#143642;" parent="X6aHceMRcVpdjTT9wPh7-59" vertex="1">
          <mxGeometry y="28" width="160" height="20" as="geometry" />
        </mxCell>
        <mxCell id="X6aHceMRcVpdjTT9wPh7-66" value="FOOD" style="text;html=1;align=center;verticalAlign=middle;whiteSpace=wrap;rounded=1;labelBackgroundColor=none;fontColor=#143642;" parent="X6aHceMRcVpdjTT9wPh7-59" vertex="1">
          <mxGeometry y="48" width="160" height="19" as="geometry" />
        </mxCell>
        <mxCell id="X6aHceMRcVpdjTT9wPh7-67" value="ACCESSORY" style="text;html=1;align=center;verticalAlign=middle;whiteSpace=wrap;rounded=1;labelBackgroundColor=none;fontColor=#143642;" parent="X6aHceMRcVpdjTT9wPh7-59" vertex="1">
          <mxGeometry y="67" width="160" height="19" as="geometry" />
        </mxCell>
        <mxCell id="X6aHceMRcVpdjTT9wPh7-68" value="PHARMACY" style="text;html=1;align=center;verticalAlign=middle;whiteSpace=wrap;rounded=1;labelBackgroundColor=none;fontColor=#143642;" parent="X6aHceMRcVpdjTT9wPh7-59" vertex="1">
          <mxGeometry y="86" width="160" height="19" as="geometry" />
        </mxCell>
        <mxCell id="X6aHceMRcVpdjTT9wPh7-70" value="BEAUTY" style="text;html=1;align=center;verticalAlign=middle;whiteSpace=wrap;rounded=1;labelBackgroundColor=none;fontColor=#143642;" parent="X6aHceMRcVpdjTT9wPh7-59" vertex="1">
          <mxGeometry y="105" width="160" height="19" as="geometry" />
        </mxCell>
        <mxCell id="X6aHceMRcVpdjTT9wPh7-71" value="CLEANING" style="text;html=1;align=center;verticalAlign=middle;whiteSpace=wrap;rounded=1;labelBackgroundColor=none;fontColor=#143642;" parent="X6aHceMRcVpdjTT9wPh7-59" vertex="1">
          <mxGeometry y="124" width="160" height="19" as="geometry" />
        </mxCell>
        <mxCell id="X6aHceMRcVpdjTT9wPh7-73" value="" style="endArrow=none;html=1;rounded=1;entryX=0.5;entryY=0;entryDx=0;entryDy=0;exitX=0.5;exitY=1;exitDx=0;exitDy=0;labelBackgroundColor=none;fontColor=default;strokeColor=#A8201A;" parent="WIyWlLk6GJQsqaUBKTNV-1" source="X6aHceMRcVpdjTT9wPh7-59" target="X6aHceMRcVpdjTT9wPh7-30" edge="1">
          <mxGeometry width="50" height="50" relative="1" as="geometry">
            <mxPoint x="106" y="237" as="sourcePoint" />
            <mxPoint x="-78" y="345" as="targetPoint" />
          </mxGeometry>
        </mxCell>
        <mxCell id="X6aHceMRcVpdjTT9wPh7-30" value="Product" style="swimlane;fontStyle=3;align=center;verticalAlign=top;childLayout=stackLayout;horizontal=1;startSize=26;horizontalStack=0;resizeParent=1;resizeLast=0;collapsible=1;marginBottom=0;rounded=1;shadow=0;strokeWidth=1;labelBackgroundColor=none;fillColor=#FAE5C7;strokeColor=#0F8B8D;fontColor=#143642;" parent="WIyWlLk6GJQsqaUBKTNV-1" vertex="1">
          <mxGeometry x="-405" y="392" width="160" height="154" as="geometry">
            <mxRectangle x="230" y="140" width="160" height="26" as="alternateBounds" />
          </mxGeometry>
        </mxCell>
        <mxCell id="wbWh36v0nCZpc6Vmj600-24" value="&amp;lt;&amp;lt;pk&amp;gt;&amp;gt; id: Long" style="text;html=1;align=center;verticalAlign=middle;whiteSpace=wrap;rounded=1;labelBackgroundColor=none;fontColor=#143642;" parent="X6aHceMRcVpdjTT9wPh7-30" vertex="1">
          <mxGeometry y="26" width="160" height="20" as="geometry" />
        </mxCell>
        <mxCell id="wbWh36v0nCZpc6Vmj600-25" value="&lt;div align=&quot;center&quot;&gt;name: String&lt;br&gt;&lt;/div&gt;" style="text;html=1;align=center;verticalAlign=middle;whiteSpace=wrap;rounded=1;labelBackgroundColor=none;fontColor=#143642;" parent="X6aHceMRcVpdjTT9wPh7-30" vertex="1">
          <mxGeometry y="46" width="160" height="20" as="geometry" />
        </mxCell>
        <mxCell id="wbWh36v0nCZpc6Vmj600-30" value="supplier: String" style="text;html=1;align=center;verticalAlign=middle;whiteSpace=wrap;rounded=1;labelBackgroundColor=none;fontColor=#143642;" parent="X6aHceMRcVpdjTT9wPh7-30" vertex="1">
          <mxGeometry y="66" width="160" height="20" as="geometry" />
        </mxCell>
        <mxCell id="wbWh36v0nCZpc6Vmj600-32" value="price: BigDecimal" style="text;html=1;align=center;verticalAlign=middle;whiteSpace=wrap;rounded=1;labelBackgroundColor=none;fontColor=#143642;" parent="X6aHceMRcVpdjTT9wPh7-30" vertex="1">
          <mxGeometry y="86" width="160" height="20" as="geometry" />
        </mxCell>
        <mxCell id="wbWh36v0nCZpc6Vmj600-33" value="description: String" style="text;html=1;align=center;verticalAlign=middle;whiteSpace=wrap;rounded=1;labelBackgroundColor=none;fontColor=#143642;" parent="X6aHceMRcVpdjTT9wPh7-30" vertex="1">
          <mxGeometry y="106" width="160" height="24" as="geometry" />
        </mxCell>
        <mxCell id="wbWh36v0nCZpc6Vmj600-64" value="stock: Integer" style="text;html=1;align=center;verticalAlign=middle;whiteSpace=wrap;rounded=1;labelBackgroundColor=none;fontColor=#143642;" parent="X6aHceMRcVpdjTT9wPh7-30" vertex="1">
          <mxGeometry y="130" width="160" height="24" as="geometry" />
        </mxCell>
        <mxCell id="X6aHceMRcVpdjTT9wPh7-32" value="Order" style="swimlane;fontStyle=3;align=center;verticalAlign=top;childLayout=stackLayout;horizontal=1;startSize=26;horizontalStack=0;resizeParent=1;resizeLast=0;collapsible=1;marginBottom=0;rounded=1;shadow=0;strokeWidth=1;labelBackgroundColor=none;fillColor=#FAE5C7;strokeColor=#0F8B8D;fontColor=#143642;" parent="WIyWlLk6GJQsqaUBKTNV-1" vertex="1">
          <mxGeometry x="-11" y="432" width="160" height="74" as="geometry">
            <mxRectangle x="230" y="140" width="160" height="26" as="alternateBounds" />
          </mxGeometry>
        </mxCell>
        <mxCell id="wbWh36v0nCZpc6Vmj600-36" value="&amp;lt;&amp;lt;pk&amp;gt;&amp;gt; id: Long" style="text;html=1;align=center;verticalAlign=middle;whiteSpace=wrap;rounded=1;labelBackgroundColor=none;fontColor=#143642;" parent="X6aHceMRcVpdjTT9wPh7-32" vertex="1">
          <mxGeometry y="26" width="160" height="20" as="geometry" />
        </mxCell>
        <mxCell id="wbWh36v0nCZpc6Vmj600-39" value="date: Instant" style="text;html=1;align=center;verticalAlign=middle;whiteSpace=wrap;rounded=1;labelBackgroundColor=none;fontColor=#143642;" parent="X6aHceMRcVpdjTT9wPh7-32" vertex="1">
          <mxGeometry y="46" width="160" height="20" as="geometry" />
        </mxCell>
        <mxCell id="X6aHceMRcVpdjTT9wPh7-34" value="OrderItem" style="swimlane;fontStyle=3;align=center;verticalAlign=top;childLayout=stackLayout;horizontal=1;startSize=26;horizontalStack=0;resizeParent=1;resizeLast=0;collapsible=1;marginBottom=0;rounded=0;shadow=0;strokeWidth=1;labelBackgroundColor=none;fillColor=#d5e8d4;strokeColor=#82b366;" parent="WIyWlLk6GJQsqaUBKTNV-1" vertex="1">
          <mxGeometry x="-204" y="571.5" width="160" height="73" as="geometry">
            <mxRectangle x="230" y="140" width="160" height="26" as="alternateBounds" />
          </mxGeometry>
        </mxCell>
        <mxCell id="wbWh36v0nCZpc6Vmj600-37" value="quantity: Integer" style="text;html=1;align=center;verticalAlign=middle;whiteSpace=wrap;rounded=1;labelBackgroundColor=none;fontColor=#143642;" parent="X6aHceMRcVpdjTT9wPh7-34" vertex="1">
          <mxGeometry y="26" width="160" height="20" as="geometry" />
        </mxCell>
        <mxCell id="wbWh36v0nCZpc6Vmj600-38" value="price: BigDecimal" style="text;html=1;align=center;verticalAlign=middle;whiteSpace=wrap;rounded=1;labelBackgroundColor=none;fontColor=#143642;" parent="X6aHceMRcVpdjTT9wPh7-34" vertex="1">
          <mxGeometry y="46" width="160" height="20" as="geometry" />
        </mxCell>
        <mxCell id="X6aHceMRcVpdjTT9wPh7-36" value="" style="endArrow=none;html=1;rounded=1;entryX=0.001;entryY=0.612;entryDx=0;entryDy=0;exitX=1;exitY=0.5;exitDx=0;exitDy=0;labelBackgroundColor=none;fontColor=default;strokeColor=#A8201A;entryPerimeter=0;" parent="WIyWlLk6GJQsqaUBKTNV-1" source="X6aHceMRcVpdjTT9wPh7-30" target="wbWh36v0nCZpc6Vmj600-36" edge="1">
          <mxGeometry width="50" height="50" relative="1" as="geometry">
            <mxPoint x="-567" y="452" as="sourcePoint" />
            <mxPoint x="-91" y="469" as="targetPoint" />
          </mxGeometry>
        </mxCell>
        <mxCell id="X6aHceMRcVpdjTT9wPh7-37" value="" style="endArrow=none;dashed=1;html=1;rounded=1;exitX=0.5;exitY=0;exitDx=0;exitDy=0;labelBackgroundColor=none;fontColor=default;strokeColor=#A8201A;" parent="WIyWlLk6GJQsqaUBKTNV-1" source="X6aHceMRcVpdjTT9wPh7-34" edge="1">
          <mxGeometry width="50" height="50" relative="1" as="geometry">
            <mxPoint x="-125.75799086758025" y="552" as="sourcePoint" />
            <mxPoint x="-125" y="469" as="targetPoint" />
          </mxGeometry>
        </mxCell>
        <mxCell id="X6aHceMRcVpdjTT9wPh7-125" value="Roles" style="swimlane;fontStyle=3;align=center;verticalAlign=top;childLayout=stackLayout;horizontal=1;startSize=26;horizontalStack=0;resizeParent=1;resizeLast=0;collapsible=1;marginBottom=0;rounded=0;shadow=0;strokeWidth=1;swimlaneFillColor=#E6E6E6;labelBackgroundColor=none;fillColor=#FAE5C7;strokeColor=#0F8B8D;fontColor=#143642;" parent="WIyWlLk6GJQsqaUBKTNV-1" vertex="1">
          <mxGeometry x="-164" y="232.75" width="160" height="73" as="geometry">
            <mxRectangle x="230" y="140" width="160" height="26" as="alternateBounds" />
          </mxGeometry>
        </mxCell>
        <mxCell id="X6aHceMRcVpdjTT9wPh7-101" value="ADMIN" style="text;html=1;align=center;verticalAlign=middle;whiteSpace=wrap;rounded=1;labelBackgroundColor=none;fontColor=#143642;" parent="X6aHceMRcVpdjTT9wPh7-125" vertex="1">
          <mxGeometry y="26" width="160" height="19" as="geometry" />
        </mxCell>
        <mxCell id="X6aHceMRcVpdjTT9wPh7-132" value="COMMON" style="text;html=1;align=center;verticalAlign=middle;whiteSpace=wrap;rounded=1;labelBackgroundColor=none;fontColor=#143642;fillColor=none;" parent="X6aHceMRcVpdjTT9wPh7-125" vertex="1">
          <mxGeometry y="45" width="160" height="19" as="geometry" />
        </mxCell>
        <mxCell id="X6aHceMRcVpdjTT9wPh7-133" value="" style="endArrow=none;html=1;rounded=1;exitX=0.5;exitY=1;exitDx=0;exitDy=0;entryX=0.5;entryY=0;entryDx=0;entryDy=0;labelBackgroundColor=none;fontColor=default;strokeColor=#A8201A;" parent="WIyWlLk6GJQsqaUBKTNV-1" source="X6aHceMRcVpdjTT9wPh7-1" target="X6aHceMRcVpdjTT9wPh7-125" edge="1">
          <mxGeometry width="50" height="50" relative="1" as="geometry">
            <mxPoint x="-88.40000000000009" y="181.75200000000007" as="sourcePoint" />
            <mxPoint x="-97" y="138" as="targetPoint" />
            <Array as="points" />
          </mxGeometry>
        </mxCell>
        <mxCell id="X6aHceMRcVpdjTT9wPh7-144" value="" style="endArrow=none;html=1;rounded=1;labelBackgroundColor=none;fontColor=default;strokeColor=#A8201A;entryX=0.998;entryY=0.807;entryDx=0;entryDy=0;entryPerimeter=0;" parent="WIyWlLk6GJQsqaUBKTNV-1" source="wbWh36v0nCZpc6Vmj600-56" target="wbWh36v0nCZpc6Vmj600-21" edge="1">
          <mxGeometry width="50" height="50" relative="1" as="geometry">
            <mxPoint x="343" y="278" as="sourcePoint" />
            <mxPoint x="-52" y="124" as="targetPoint" />
          </mxGeometry>
        </mxCell>
        <mxCell id="wbWh36v0nCZpc6Vmj600-50" value="AnimalType" style="swimlane;fontStyle=3;align=center;verticalAlign=top;childLayout=stackLayout;horizontal=1;startSize=26;horizontalStack=0;resizeParent=1;resizeLast=0;collapsible=1;marginBottom=0;rounded=0;shadow=0;strokeWidth=1;swimlaneFillColor=#E6E6E6;labelBackgroundColor=none;fillColor=#FAE5C7;strokeColor=#0F8B8D;fontColor=#143642;" parent="WIyWlLk6GJQsqaUBKTNV-1" vertex="1">
          <mxGeometry x="352" y="70" width="132" height="73" as="geometry">
            <mxRectangle x="230" y="140" width="160" height="26" as="alternateBounds" />
          </mxGeometry>
        </mxCell>
        <mxCell id="wbWh36v0nCZpc6Vmj600-51" value="DOG" style="text;html=1;align=center;verticalAlign=middle;whiteSpace=wrap;rounded=1;labelBackgroundColor=none;fontColor=#143642;" parent="wbWh36v0nCZpc6Vmj600-50" vertex="1">
          <mxGeometry y="26" width="132" height="19" as="geometry" />
        </mxCell>
        <mxCell id="wbWh36v0nCZpc6Vmj600-52" value="CAT" style="text;html=1;align=center;verticalAlign=middle;whiteSpace=wrap;rounded=1;labelBackgroundColor=none;fontColor=#143642;" parent="wbWh36v0nCZpc6Vmj600-50" vertex="1">
          <mxGeometry y="45" width="132" height="19" as="geometry" />
        </mxCell>
        <mxCell id="wbWh36v0nCZpc6Vmj600-54" value="" style="endArrow=none;html=1;rounded=1;labelBackgroundColor=none;fontColor=default;strokeColor=#A8201A;exitX=0.75;exitY=1;exitDx=0;exitDy=0;" parent="WIyWlLk6GJQsqaUBKTNV-1" source="wbWh36v0nCZpc6Vmj600-50" edge="1">
          <mxGeometry width="50" height="50" relative="1" as="geometry">
            <mxPoint x="409" y="80" as="sourcePoint" />
            <mxPoint x="452" y="186" as="targetPoint" />
          </mxGeometry>
        </mxCell>
        <mxCell id="wbWh36v0nCZpc6Vmj600-58" value="Gender" style="swimlane;fontStyle=3;align=center;verticalAlign=top;childLayout=stackLayout;horizontal=1;startSize=26;horizontalStack=0;resizeParent=1;resizeLast=0;collapsible=1;marginBottom=0;rounded=0;shadow=0;strokeWidth=1;swimlaneFillColor=#E6E6E6;labelBackgroundColor=none;fillColor=#FAE5C7;strokeColor=#0F8B8D;fontColor=#143642;" parent="WIyWlLk6GJQsqaUBKTNV-1" vertex="1">
          <mxGeometry x="498" y="71" width="132" height="73" as="geometry">
            <mxRectangle x="230" y="140" width="160" height="26" as="alternateBounds" />
          </mxGeometry>
        </mxCell>
        <mxCell id="wbWh36v0nCZpc6Vmj600-59" value="MALE" style="text;html=1;align=center;verticalAlign=middle;whiteSpace=wrap;rounded=1;labelBackgroundColor=none;fontColor=#143642;" parent="wbWh36v0nCZpc6Vmj600-58" vertex="1">
          <mxGeometry y="26" width="132" height="19" as="geometry" />
        </mxCell>
        <mxCell id="wbWh36v0nCZpc6Vmj600-60" value="FEMALE" style="text;html=1;align=center;verticalAlign=middle;whiteSpace=wrap;rounded=1;labelBackgroundColor=none;fontColor=#143642;" parent="wbWh36v0nCZpc6Vmj600-58" vertex="1">
          <mxGeometry y="45" width="132" height="19" as="geometry" />
        </mxCell>
        <mxCell id="wbWh36v0nCZpc6Vmj600-62" value="" style="endArrow=none;html=1;rounded=1;entryX=0.75;entryY=0;entryDx=0;entryDy=0;exitX=0.25;exitY=1;exitDx=0;exitDy=0;labelBackgroundColor=none;fontColor=default;strokeColor=#A8201A;" parent="WIyWlLk6GJQsqaUBKTNV-1" source="wbWh36v0nCZpc6Vmj600-58" target="X6aHceMRcVpdjTT9wPh7-13" edge="1">
          <mxGeometry width="50" height="50" relative="1" as="geometry">
            <mxPoint x="636" y="239" as="sourcePoint" />
            <mxPoint x="547" y="239" as="targetPoint" />
          </mxGeometry>
        </mxCell>
        <mxCell id="wbWh36v0nCZpc6Vmj600-67" value="" style="endArrow=none;html=1;rounded=1;exitX=0.5;exitY=0;exitDx=0;exitDy=0;entryX=0.75;entryY=1;entryDx=0;entryDy=0;labelBackgroundColor=none;fontColor=default;strokeColor=#A8201A;" parent="WIyWlLk6GJQsqaUBKTNV-1" source="X6aHceMRcVpdjTT9wPh7-7" target="X6aHceMRcVpdjTT9wPh7-3" edge="1">
          <mxGeometry width="50" height="50" relative="1" as="geometry">
            <mxPoint x="231" y="287" as="sourcePoint" />
            <mxPoint x="181" y="308" as="targetPoint" />
          </mxGeometry>
        </mxCell>
        <mxCell id="WaDthbBKja6x3SG7VzEH-0" value="*" style="text;html=1;align=center;verticalAlign=middle;whiteSpace=wrap;rounded=1;labelBackgroundColor=none;fontColor=#143642;" parent="WIyWlLk6GJQsqaUBKTNV-1" vertex="1">
          <mxGeometry x="-46" y="448" width="35" height="21" as="geometry" />
        </mxCell>
        <mxCell id="WaDthbBKja6x3SG7VzEH-1" value="1..*" style="text;html=1;align=center;verticalAlign=middle;whiteSpace=wrap;rounded=1;labelBackgroundColor=none;fontColor=#143642;" parent="WIyWlLk6GJQsqaUBKTNV-1" vertex="1">
          <mxGeometry x="-242" y="448" width="35" height="21" as="geometry" />
        </mxCell>
        <mxCell id="WaDthbBKja6x3SG7VzEH-2" value="- products" style="text;html=1;align=center;verticalAlign=middle;whiteSpace=wrap;rounded=1;labelBackgroundColor=none;fontColor=#143642;" parent="WIyWlLk6GJQsqaUBKTNV-1" vertex="1">
          <mxGeometry x="-242" y="465" width="58" height="31" as="geometry" />
        </mxCell>
        <mxCell id="WaDthbBKja6x3SG7VzEH-3" value="- orders" style="text;html=1;align=center;verticalAlign=middle;whiteSpace=wrap;rounded=1;labelBackgroundColor=none;fontColor=#143642;" parent="WIyWlLk6GJQsqaUBKTNV-1" vertex="1">
          <mxGeometry x="-67" y="473" width="58" height="14" as="geometry" />
        </mxCell>
        <mxCell id="WaDthbBKja6x3SG7VzEH-5" value="*" style="text;html=1;align=center;verticalAlign=middle;whiteSpace=wrap;rounded=1;labelBackgroundColor=none;fontColor=#143642;" parent="WIyWlLk6GJQsqaUBKTNV-1" vertex="1">
          <mxGeometry x="44" y="412" width="35" height="21" as="geometry" />
        </mxCell>
        <mxCell id="WaDthbBKja6x3SG7VzEH-7" value="- orders" style="text;html=1;align=center;verticalAlign=middle;whiteSpace=wrap;rounded=1;fontSize=12;labelBackgroundColor=none;fontColor=#143642;" parent="WIyWlLk6GJQsqaUBKTNV-1" vertex="1">
          <mxGeometry x="81" y="406" width="58" height="31" as="geometry" />
        </mxCell>
        <mxCell id="WaDthbBKja6x3SG7VzEH-8" value="- client" style="text;html=1;align=center;verticalAlign=middle;whiteSpace=wrap;rounded=1;labelBackgroundColor=none;fontColor=#143642;" parent="WIyWlLk6GJQsqaUBKTNV-1" vertex="1">
          <mxGeometry x="188" y="202.88" width="46" height="16.5" as="geometry" />
        </mxCell>
        <mxCell id="WaDthbBKja6x3SG7VzEH-10" value="*" style="text;html=1;align=center;verticalAlign=middle;whiteSpace=wrap;rounded=1;labelBackgroundColor=none;fontColor=#143642;" parent="WIyWlLk6GJQsqaUBKTNV-1" vertex="1">
          <mxGeometry x="376" y="239.63" width="35" height="21" as="geometry" />
        </mxCell>
        <mxCell id="WaDthbBKja6x3SG7VzEH-11" value="1" style="text;html=1;align=center;verticalAlign=middle;whiteSpace=wrap;rounded=1;labelBackgroundColor=none;fontColor=#143642;" parent="WIyWlLk6GJQsqaUBKTNV-1" vertex="1">
          <mxGeometry x="263" y="247.75" width="35" height="10.75" as="geometry" />
        </mxCell>
        <mxCell id="WaDthbBKja6x3SG7VzEH-13" value="- client" style="text;html=1;align=center;verticalAlign=middle;whiteSpace=wrap;rounded=1;labelBackgroundColor=none;fontColor=#143642;" parent="WIyWlLk6GJQsqaUBKTNV-1" vertex="1">
          <mxGeometry x="260" y="267.25" width="58" height="12" as="geometry" />
        </mxCell>
        <mxCell id="WaDthbBKja6x3SG7VzEH-14" value="- pets" style="text;html=1;align=center;verticalAlign=middle;whiteSpace=wrap;rounded=1;labelBackgroundColor=none;fontColor=#143642;" parent="WIyWlLk6GJQsqaUBKTNV-1" vertex="1">
          <mxGeometry x="359" y="263.63" width="58" height="19.25" as="geometry" />
        </mxCell>
        <mxCell id="WaDthbBKja6x3SG7VzEH-48" value="- orders" style="text;html=1;align=center;verticalAlign=middle;whiteSpace=wrap;rounded=1;labelBackgroundColor=none;fontColor=#143642;" parent="WIyWlLk6GJQsqaUBKTNV-1" vertex="1">
          <mxGeometry x="91" y="507.5" width="58" height="16" as="geometry" />
        </mxCell>
        <mxCell id="WaDthbBKja6x3SG7VzEH-49" value="- appointments " style="text;html=1;align=center;verticalAlign=middle;whiteSpace=wrap;rounded=1;labelBackgroundColor=none;fontColor=#143642;" parent="WIyWlLk6GJQsqaUBKTNV-1" vertex="1">
          <mxGeometry x="299" y="505.5" width="96" height="20" as="geometry" />
        </mxCell>
        <mxCell id="WaDthbBKja6x3SG7VzEH-53" value="*" style="text;html=1;align=center;verticalAlign=middle;whiteSpace=wrap;rounded=1;labelBackgroundColor=none;fontColor=#143642;" parent="WIyWlLk6GJQsqaUBKTNV-1" vertex="1">
          <mxGeometry x="44" y="509" width="35" height="21" as="geometry" />
        </mxCell>
        <mxCell id="WaDthbBKja6x3SG7VzEH-55" value="Log" style="swimlane;fontStyle=3;align=center;verticalAlign=top;childLayout=stackLayout;horizontal=1;startSize=26;horizontalStack=0;resizeParent=1;resizeLast=0;collapsible=1;marginBottom=0;rounded=1;shadow=0;strokeWidth=1;labelBackgroundColor=none;fillColor=#FAE5C7;strokeColor=#0F8B8D;fontColor=#143642;" parent="WIyWlLk6GJQsqaUBKTNV-1" vertex="1">
          <mxGeometry x="117" y="623" width="160" height="67.5" as="geometry">
            <mxRectangle x="230" y="140" width="160" height="26" as="alternateBounds" />
          </mxGeometry>
        </mxCell>
        <mxCell id="WaDthbBKja6x3SG7VzEH-58" value="&amp;lt;&amp;lt;pk&amp;gt;&amp;gt; id: Long" style="text;html=1;align=center;verticalAlign=middle;whiteSpace=wrap;rounded=1;labelBackgroundColor=none;fontColor=#143642;" parent="WaDthbBKja6x3SG7VzEH-55" vertex="1">
          <mxGeometry y="26" width="160" height="20" as="geometry" />
        </mxCell>
        <mxCell id="WaDthbBKja6x3SG7VzEH-59" value="date: LocalDate" style="text;html=1;align=center;verticalAlign=middle;whiteSpace=wrap;rounded=1;labelBackgroundColor=none;fontColor=#143642;" parent="WaDthbBKja6x3SG7VzEH-55" vertex="1">
          <mxGeometry y="46" width="160" height="20" as="geometry" />
        </mxCell>
        <mxCell id="WaDthbBKja6x3SG7VzEH-61" value="RegisterType" style="swimlane;fontStyle=3;align=center;verticalAlign=top;childLayout=stackLayout;horizontal=1;startSize=26;horizontalStack=0;resizeParent=1;resizeLast=0;collapsible=1;marginBottom=0;rounded=0;shadow=0;strokeWidth=1;swimlaneFillColor=#E6E6E6;labelBackgroundColor=none;fillColor=#FAE5C7;strokeColor=#0F8B8D;fontColor=#143642;" parent="WIyWlLk6GJQsqaUBKTNV-1" vertex="1">
          <mxGeometry x="131" y="732" width="132" height="73" as="geometry">
            <mxRectangle x="230" y="140" width="160" height="26" as="alternateBounds" />
          </mxGeometry>
        </mxCell>
        <mxCell id="WaDthbBKja6x3SG7VzEH-62" value="APPOINTMENT" style="text;html=1;align=center;verticalAlign=middle;whiteSpace=wrap;rounded=1;labelBackgroundColor=none;fontColor=#143642;" parent="WaDthbBKja6x3SG7VzEH-61" vertex="1">
          <mxGeometry y="26" width="132" height="19" as="geometry" />
        </mxCell>
        <mxCell id="WaDthbBKja6x3SG7VzEH-63" value="ORDER" style="text;html=1;align=center;verticalAlign=middle;whiteSpace=wrap;rounded=1;labelBackgroundColor=none;fontColor=#143642;" parent="WaDthbBKja6x3SG7VzEH-61" vertex="1">
          <mxGeometry y="45" width="132" height="19" as="geometry" />
        </mxCell>
        <mxCell id="WaDthbBKja6x3SG7VzEH-64" value="" style="endArrow=none;html=1;rounded=1;entryX=0.5;entryY=0;entryDx=0;entryDy=0;exitX=0.5;exitY=1;exitDx=0;exitDy=0;labelBackgroundColor=none;fontColor=default;strokeColor=#A8201A;" parent="WIyWlLk6GJQsqaUBKTNV-1" source="WaDthbBKja6x3SG7VzEH-55" target="WaDthbBKja6x3SG7VzEH-61" edge="1">
          <mxGeometry width="50" height="50" relative="1" as="geometry">
            <mxPoint x="143" y="641" as="sourcePoint" />
            <mxPoint x="134" y="686" as="targetPoint" />
          </mxGeometry>
        </mxCell>
        <mxCell id="WaDthbBKja6x3SG7VzEH-65" value="" style="endArrow=none;html=1;rounded=1;exitX=0.713;exitY=-0.015;exitDx=0;exitDy=0;exitPerimeter=0;labelBackgroundColor=none;fontColor=default;strokeColor=#A8201A;entryX=0.5;entryY=1;entryDx=0;entryDy=0;" parent="WIyWlLk6GJQsqaUBKTNV-1" source="WaDthbBKja6x3SG7VzEH-55" target="X6aHceMRcVpdjTT9wPh7-7" edge="1">
          <mxGeometry width="50" height="50" relative="1" as="geometry">
            <mxPoint x="262" y="574" as="sourcePoint" />
            <mxPoint x="291" y="506" as="targetPoint" />
          </mxGeometry>
        </mxCell>
        <mxCell id="WaDthbBKja6x3SG7VzEH-68" value="*" style="text;html=1;align=center;verticalAlign=middle;whiteSpace=wrap;rounded=1;labelBackgroundColor=none;fontColor=#143642;" parent="WIyWlLk6GJQsqaUBKTNV-1" vertex="1">
          <mxGeometry x="260" y="511" width="35" height="16" as="geometry" />
        </mxCell>
        <mxCell id="WaDthbBKja6x3SG7VzEH-69" value="- services" style="text;html=1;align=center;verticalAlign=middle;whiteSpace=wrap;rounded=1;labelBackgroundColor=none;fontColor=#143642;" parent="WIyWlLk6GJQsqaUBKTNV-1" vertex="1">
          <mxGeometry x="483" y="457" width="58" height="31" as="geometry" />
        </mxCell>
        <mxCell id="WaDthbBKja6x3SG7VzEH-71" value="- appointments " style="text;html=1;align=center;verticalAlign=middle;whiteSpace=wrap;rounded=1;labelBackgroundColor=none;fontColor=#143642;" parent="WIyWlLk6GJQsqaUBKTNV-1" vertex="1">
          <mxGeometry x="377" y="457" width="96" height="31" as="geometry" />
        </mxCell>
        <mxCell id="WaDthbBKja6x3SG7VzEH-72" value="1..*" style="text;html=1;align=center;verticalAlign=middle;whiteSpace=wrap;rounded=1;labelBackgroundColor=none;fontColor=#143642;" parent="WIyWlLk6GJQsqaUBKTNV-1" vertex="1">
          <mxGeometry x="508" y="485" width="35" height="21" as="geometry" />
        </mxCell>
        <mxCell id="WaDthbBKja6x3SG7VzEH-74" value="*" style="text;html=1;align=center;verticalAlign=middle;whiteSpace=wrap;rounded=1;labelBackgroundColor=none;fontColor=#143642;" parent="WIyWlLk6GJQsqaUBKTNV-1" vertex="1">
          <mxGeometry x="377" y="485" width="35" height="21" as="geometry" />
        </mxCell>
        <mxCell id="WaDthbBKja6x3SG7VzEH-78" value="*" style="text;html=1;align=center;verticalAlign=middle;whiteSpace=wrap;rounded=1;labelBackgroundColor=none;fontColor=#143642;" parent="WIyWlLk6GJQsqaUBKTNV-1" vertex="1">
          <mxGeometry x="255" y="412" width="35" height="21" as="geometry" />
        </mxCell>
        <mxCell id="WaDthbBKja6x3SG7VzEH-84" value="AgendaService" style="swimlane;fontStyle=3;align=center;verticalAlign=top;childLayout=stackLayout;horizontal=1;startSize=26;horizontalStack=0;resizeParent=1;resizeLast=0;collapsible=1;marginBottom=0;rounded=0;shadow=0;strokeWidth=1;labelBackgroundColor=none;fillColor=#d5e8d4;strokeColor=#82b366;" parent="WIyWlLk6GJQsqaUBKTNV-1" vertex="1">
          <mxGeometry x="381" y="587" width="160" height="50.5" as="geometry">
            <mxRectangle x="230" y="140" width="160" height="26" as="alternateBounds" />
          </mxGeometry>
        </mxCell>
        <mxCell id="WaDthbBKja6x3SG7VzEH-85" value="price: BigDecimal" style="text;html=1;align=center;verticalAlign=middle;whiteSpace=wrap;rounded=1;labelBackgroundColor=none;fontColor=#143642;" parent="WaDthbBKja6x3SG7VzEH-84" vertex="1">
          <mxGeometry y="26" width="160" height="20" as="geometry" />
        </mxCell>
        <mxCell id="WaDthbBKja6x3SG7VzEH-87" value="" style="endArrow=none;dashed=1;html=1;rounded=1;exitX=0.5;exitY=0;exitDx=0;exitDy=0;labelBackgroundColor=none;fontColor=default;strokeColor=#A8201A;" parent="WIyWlLk6GJQsqaUBKTNV-1" source="WaDthbBKja6x3SG7VzEH-84" edge="1">
          <mxGeometry width="50" height="50" relative="1" as="geometry">
            <mxPoint x="464.24200913241975" y="546" as="sourcePoint" />
            <mxPoint x="460" y="485" as="targetPoint" />
          </mxGeometry>
        </mxCell>
        <mxCell id="WaDthbBKja6x3SG7VzEH-92" value="Address" style="swimlane;fontStyle=3;align=center;verticalAlign=top;childLayout=stackLayout;horizontal=1;startSize=26;horizontalStack=0;resizeParent=1;resizeLast=0;collapsible=1;marginBottom=0;rounded=1;shadow=0;strokeWidth=1;labelBackgroundColor=none;fillColor=#FAE5C7;strokeColor=#0F8B8D;swimlaneFillColor=none;fontColor=#143642;" parent="WIyWlLk6GJQsqaUBKTNV-1" vertex="1">
          <mxGeometry x="107" y="-9.629999999999995" width="160" height="163" as="geometry">
            <mxRectangle x="230" y="140" width="160" height="26" as="alternateBounds" />
          </mxGeometry>
        </mxCell>
        <mxCell id="WaDthbBKja6x3SG7VzEH-93" value="&amp;lt;&amp;lt;pk&amp;gt;&amp;gt; id :Long" style="text;html=1;align=center;verticalAlign=middle;whiteSpace=wrap;rounded=1;labelBackgroundColor=none;fontColor=#143642;" parent="WaDthbBKja6x3SG7VzEH-92" vertex="1">
          <mxGeometry y="26" width="160" height="18" as="geometry" />
        </mxCell>
        <mxCell id="WaDthbBKja6x3SG7VzEH-94" value="cep: Integer" style="text;html=1;align=center;verticalAlign=middle;whiteSpace=wrap;rounded=1;labelBackgroundColor=none;fontColor=#143642;" parent="WaDthbBKja6x3SG7VzEH-92" vertex="1">
          <mxGeometry y="44" width="160" height="20" as="geometry" />
        </mxCell>
        <mxCell id="WaDthbBKja6x3SG7VzEH-95" value="street: String" style="text;html=1;align=center;verticalAlign=middle;whiteSpace=wrap;rounded=1;labelBackgroundColor=none;fontColor=#143642;" parent="WaDthbBKja6x3SG7VzEH-92" vertex="1">
          <mxGeometry y="64" width="160" height="18" as="geometry" />
        </mxCell>
        <mxCell id="WaDthbBKja6x3SG7VzEH-96" value="number: Integer" style="text;html=1;align=center;verticalAlign=middle;whiteSpace=wrap;rounded=1;labelBackgroundColor=none;fontColor=#143642;" parent="WaDthbBKja6x3SG7VzEH-92" vertex="1">
          <mxGeometry y="82" width="160" height="19" as="geometry" />
        </mxCell>
        <mxCell id="WaDthbBKja6x3SG7VzEH-97" value="&lt;span lang=&quot;pt&quot; class=&quot;BxUVEf ILfuVd&quot;&gt;&lt;span class=&quot;hgKElc&quot;&gt;distric: String &lt;/span&gt;&lt;/span&gt;" style="text;html=1;align=center;verticalAlign=middle;whiteSpace=wrap;rounded=1;labelBackgroundColor=none;fontColor=#143642;" parent="WaDthbBKja6x3SG7VzEH-92" vertex="1">
          <mxGeometry y="101" width="160" height="20" as="geometry" />
        </mxCell>
        <mxCell id="WaDthbBKja6x3SG7VzEH-98" value="city: String" style="text;html=1;align=center;verticalAlign=middle;whiteSpace=wrap;rounded=1;labelBackgroundColor=none;fontColor=#143642;" parent="WaDthbBKja6x3SG7VzEH-92" vertex="1">
          <mxGeometry y="121" width="160" height="19" as="geometry" />
        </mxCell>
        <mxCell id="WaDthbBKja6x3SG7VzEH-103" value="uf:String" style="text;html=1;align=center;verticalAlign=middle;whiteSpace=wrap;rounded=1;labelBackgroundColor=none;fontColor=#143642;" parent="WaDthbBKja6x3SG7VzEH-92" vertex="1">
          <mxGeometry y="140" width="160" height="19" as="geometry" />
        </mxCell>
        <mxCell id="qDixvgR1WsT5OVkYPzhH-1" value="HealthCareLog" style="swimlane;fontStyle=3;align=center;verticalAlign=top;childLayout=stackLayout;horizontal=1;startSize=26;horizontalStack=0;resizeParent=1;resizeLast=0;collapsible=1;marginBottom=0;rounded=1;shadow=0;strokeWidth=1;labelBackgroundColor=none;fillColor=#FAE5C7;strokeColor=#0F8B8D;fontColor=#143642;" parent="WIyWlLk6GJQsqaUBKTNV-1" vertex="1">
          <mxGeometry x="703" y="213.4" width="160" height="95.19" as="geometry">
            <mxRectangle x="230" y="140" width="160" height="26" as="alternateBounds" />
          </mxGeometry>
        </mxCell>
        <mxCell id="qDixvgR1WsT5OVkYPzhH-2" value="&amp;lt;&amp;lt;pk&amp;gt;&amp;gt; id: Long" style="text;html=1;align=center;verticalAlign=middle;whiteSpace=wrap;rounded=1;labelBackgroundColor=none;fontColor=#143642;" parent="qDixvgR1WsT5OVkYPzhH-1" vertex="1">
          <mxGeometry y="26" width="160" height="20" as="geometry" />
        </mxCell>
        <mxCell id="qDixvgR1WsT5OVkYPzhH-3" value="applicationDate: LocalDate" style="text;html=1;align=center;verticalAlign=middle;whiteSpace=wrap;rounded=1;labelBackgroundColor=none;fontColor=#143642;" parent="qDixvgR1WsT5OVkYPzhH-1" vertex="1">
          <mxGeometry y="46" width="160" height="20" as="geometry" />
        </mxCell>
        <mxCell id="qDixvgR1WsT5OVkYPzhH-155" value="details: String" style="text;html=1;align=center;verticalAlign=middle;whiteSpace=wrap;rounded=1;labelBackgroundColor=none;fontColor=#143642;" parent="qDixvgR1WsT5OVkYPzhH-1" vertex="1">
          <mxGeometry y="66" width="160" height="20" as="geometry" />
        </mxCell>
        <mxCell id="qDixvgR1WsT5OVkYPzhH-12" value="" style="endArrow=none;html=1;rounded=1;labelBackgroundColor=none;fontColor=default;strokeColor=#A8201A;entryX=1.002;entryY=0.392;entryDx=0;entryDy=0;entryPerimeter=0;exitX=0;exitY=0.5;exitDx=0;exitDy=0;" parent="WIyWlLk6GJQsqaUBKTNV-1" source="qDixvgR1WsT5OVkYPzhH-1" target="wbWh36v0nCZpc6Vmj600-56" edge="1">
          <mxGeometry width="50" height="50" relative="1" as="geometry">
            <mxPoint x="669" y="267" as="sourcePoint" />
            <mxPoint x="171" y="271" as="targetPoint" />
          </mxGeometry>
        </mxCell>
        <mxCell id="qDixvgR1WsT5OVkYPzhH-59" value="- appointments " style="text;html=1;align=center;verticalAlign=middle;whiteSpace=wrap;rounded=1;labelBackgroundColor=none;fontColor=#143642;" parent="WIyWlLk6GJQsqaUBKTNV-1" vertex="1">
          <mxGeometry x="292" y="409" width="96" height="20" as="geometry" />
        </mxCell>
        <mxCell id="qDixvgR1WsT5OVkYPzhH-153" value="- treatments" style="text;html=1;align=center;verticalAlign=middle;whiteSpace=wrap;rounded=1;labelBackgroundColor=none;fontColor=#143642;" parent="WIyWlLk6GJQsqaUBKTNV-1" vertex="1">
          <mxGeometry x="623" y="264.5" width="80" height="19.25" as="geometry" />
        </mxCell>
        <mxCell id="qDixvgR1WsT5OVkYPzhH-154" value="1" style="text;html=1;align=center;verticalAlign=middle;whiteSpace=wrap;rounded=1;labelBackgroundColor=none;fontColor=#143642;" parent="WIyWlLk6GJQsqaUBKTNV-1" vertex="1">
          <mxGeometry x="567" y="238.5" width="35" height="21" as="geometry" />
        </mxCell>
        <mxCell id="qDixvgR1WsT5OVkYPzhH-156" value="*" style="text;html=1;align=center;verticalAlign=middle;whiteSpace=wrap;rounded=1;labelBackgroundColor=none;fontColor=#143642;" parent="WIyWlLk6GJQsqaUBKTNV-1" vertex="1">
          <mxGeometry x="668" y="238.5" width="35" height="21" as="geometry" />
        </mxCell>
        <mxCell id="qDixvgR1WsT5OVkYPzhH-159" value="- pet" style="text;html=1;align=center;verticalAlign=middle;whiteSpace=wrap;rounded=1;labelBackgroundColor=none;fontColor=#143642;" parent="WIyWlLk6GJQsqaUBKTNV-1" vertex="1">
          <mxGeometry x="571" y="264.5" width="36" height="19.25" as="geometry" />
        </mxCell>
        <mxCell id="qDixvgR1WsT5OVkYPzhH-175" value="TreatmentType" style="swimlane;fontStyle=3;align=center;verticalAlign=top;childLayout=stackLayout;horizontal=1;startSize=26;horizontalStack=0;resizeParent=1;resizeLast=0;collapsible=1;marginBottom=0;rounded=0;shadow=0;strokeWidth=1;swimlaneFillColor=#E6E6E6;labelBackgroundColor=none;fillColor=#FAE5C7;strokeColor=#0F8B8D;fontColor=#143642;" parent="WIyWlLk6GJQsqaUBKTNV-1" vertex="1">
          <mxGeometry x="717" y="64" width="132" height="96" as="geometry">
            <mxRectangle x="230" y="140" width="160" height="26" as="alternateBounds" />
          </mxGeometry>
        </mxCell>
        <mxCell id="qDixvgR1WsT5OVkYPzhH-176" value="VERMIFUGE" style="text;html=1;align=center;verticalAlign=middle;whiteSpace=wrap;rounded=1;labelBackgroundColor=none;fontColor=#143642;" parent="qDixvgR1WsT5OVkYPzhH-175" vertex="1">
          <mxGeometry y="26" width="132" height="19" as="geometry" />
        </mxCell>
        <mxCell id="qDixvgR1WsT5OVkYPzhH-177" value="FLEAPREVENTION" style="text;html=1;align=center;verticalAlign=middle;whiteSpace=wrap;rounded=1;labelBackgroundColor=none;fontColor=#143642;" parent="qDixvgR1WsT5OVkYPzhH-175" vertex="1">
          <mxGeometry y="45" width="132" height="19" as="geometry" />
        </mxCell>
        <mxCell id="qDixvgR1WsT5OVkYPzhH-178" value="VACCINE" style="text;html=1;align=center;verticalAlign=middle;whiteSpace=wrap;rounded=1;labelBackgroundColor=none;fontColor=#143642;" parent="qDixvgR1WsT5OVkYPzhH-175" vertex="1">
          <mxGeometry y="64" width="132" height="19" as="geometry" />
        </mxCell>
        <mxCell id="qDixvgR1WsT5OVkYPzhH-179" value="" style="endArrow=none;html=1;rounded=1;exitX=0.5;exitY=1;exitDx=0;exitDy=0;labelBackgroundColor=none;fontColor=default;strokeColor=#A8201A;entryX=0.5;entryY=0;entryDx=0;entryDy=0;" parent="WIyWlLk6GJQsqaUBKTNV-1" source="qDixvgR1WsT5OVkYPzhH-175" target="qDixvgR1WsT5OVkYPzhH-1" edge="1">
          <mxGeometry width="50" height="50" relative="1" as="geometry">
            <mxPoint x="541" y="126" as="sourcePoint" />
            <mxPoint x="772" y="209" as="targetPoint" />
          </mxGeometry>
        </mxCell>
        <mxCell id="IY1wqJiJF90ns-83pZvN-204" value="1" style="text;html=1;align=center;verticalAlign=middle;whiteSpace=wrap;rounded=1;labelBackgroundColor=none;fontColor=#143642;" parent="WIyWlLk6GJQsqaUBKTNV-1" vertex="1">
          <mxGeometry x="167" y="157" width="12" height="8.63" as="geometry" />
        </mxCell>
        <mxCell id="IY1wqJiJF90ns-83pZvN-207" value="1" style="text;html=1;align=center;verticalAlign=middle;whiteSpace=wrap;rounded=1;labelBackgroundColor=none;fontColor=#143642;" parent="WIyWlLk6GJQsqaUBKTNV-1" vertex="1">
          <mxGeometry y="44.37" width="12" height="15.63" as="geometry" />
        </mxCell>
        <mxCell id="IY1wqJiJF90ns-83pZvN-208" value="1" style="text;html=1;align=center;verticalAlign=middle;whiteSpace=wrap;rounded=1;labelBackgroundColor=none;fontColor=#143642;" parent="WIyWlLk6GJQsqaUBKTNV-1" vertex="1">
          <mxGeometry x="88" y="44.37" width="12" height="15.63" as="geometry" />
        </mxCell>
        <mxCell id="IY1wqJiJF90ns-83pZvN-209" value="- address" style="text;html=1;align=center;verticalAlign=middle;whiteSpace=wrap;rounded=1;labelBackgroundColor=none;fontColor=#143642;" parent="WIyWlLk6GJQsqaUBKTNV-1" vertex="1">
          <mxGeometry x="46" y="66" width="61" height="9.88" as="geometry" />
        </mxCell>
        <mxCell id="IY1wqJiJF90ns-83pZvN-210" value="- user" style="text;html=1;align=center;verticalAlign=middle;whiteSpace=wrap;rounded=1;labelBackgroundColor=none;fontColor=#143642;" parent="WIyWlLk6GJQsqaUBKTNV-1" vertex="1">
          <mxGeometry x="-4" y="62.69000000000001" width="41" height="16.5" as="geometry" />
        </mxCell>
        <mxCell id="wbWh36v0nCZpc6Vmj600-88" value="" style="group;rounded=1;labelBackgroundColor=none;fontColor=#143642;" parent="WIyWlLk6GJQsqaUBKTNV-1" vertex="1" connectable="0">
          <mxGeometry x="33" y="-115" width="344" height="57" as="geometry" />
        </mxCell>
        <mxCell id="IY1wqJiJF90ns-83pZvN-167" value="" style="group;labelBackgroundColor=none;fontColor=#143642;" parent="wbWh36v0nCZpc6Vmj600-88" vertex="1" connectable="0">
          <mxGeometry x="-4" y="-10" width="344" height="57" as="geometry" />
        </mxCell>
        <mxCell id="wbWh36v0nCZpc6Vmj600-86" value="by&amp;nbsp; Mateus Fonseca" style="text;html=1;align=center;verticalAlign=top;whiteSpace=wrap;rounded=1;fontStyle=1;fontSize=15;labelBackgroundColor=none;fontColor=#143642;" parent="IY1wqJiJF90ns-83pZvN-167" vertex="1">
          <mxGeometry x="36" y="27" width="171" height="30" as="geometry" />
        </mxCell>
        <mxCell id="wbWh36v0nCZpc6Vmj600-87" value="Class Diagram - PetControlSystem" style="text;html=1;align=center;verticalAlign=top;whiteSpace=wrap;rounded=1;fontStyle=1;fontSize=15;labelBackgroundColor=none;fontColor=#143642;" parent="IY1wqJiJF90ns-83pZvN-167" vertex="1">
          <mxGeometry width="344" height="30" as="geometry" />
        </mxCell>
        <mxCell id="IY1wqJiJF90ns-83pZvN-216" value="" style="group" parent="WIyWlLk6GJQsqaUBKTNV-1" vertex="1" connectable="0">
          <mxGeometry x="-408" y="-109" width="341" height="32" as="geometry" />
        </mxCell>
        <mxCell id="IY1wqJiJF90ns-83pZvN-168" value="" style="rounded=0;whiteSpace=wrap;html=1;strokeColor=none;fontColor=#143642;fillColor=#FAE5C7;labelBackgroundColor=none;" parent="IY1wqJiJF90ns-83pZvN-216" vertex="1">
          <mxGeometry y="2" width="37" height="26" as="geometry" />
        </mxCell>
        <mxCell id="IY1wqJiJF90ns-83pZvN-169" value="classes" style="text;html=1;align=center;verticalAlign=middle;whiteSpace=wrap;rounded=0;fontColor=#143642;labelBackgroundColor=none;" parent="IY1wqJiJF90ns-83pZvN-216" vertex="1">
          <mxGeometry x="37" width="60" height="30" as="geometry" />
        </mxCell>
        <mxCell id="IY1wqJiJF90ns-83pZvN-214" value="" style="group" parent="IY1wqJiJF90ns-83pZvN-216" vertex="1" connectable="0">
          <mxGeometry x="98" y="2" width="97" height="30" as="geometry" />
        </mxCell>
        <mxCell id="IY1wqJiJF90ns-83pZvN-170" value="" style="rounded=0;whiteSpace=wrap;html=1;strokeColor=none;fontColor=#333333;fillColor=#E6E6E6;labelBackgroundColor=none;" parent="IY1wqJiJF90ns-83pZvN-214" vertex="1">
          <mxGeometry width="37" height="26" as="geometry" />
        </mxCell>
        <mxCell id="IY1wqJiJF90ns-83pZvN-171" value="enums" style="text;html=1;align=center;verticalAlign=middle;whiteSpace=wrap;rounded=0;fontColor=#143642;labelBackgroundColor=none;" parent="IY1wqJiJF90ns-83pZvN-214" vertex="1">
          <mxGeometry x="37" width="60" height="30" as="geometry" />
        </mxCell>
        <mxCell id="IY1wqJiJF90ns-83pZvN-215" value="" style="group" parent="IY1wqJiJF90ns-83pZvN-216" vertex="1" connectable="0">
          <mxGeometry x="199" width="142" height="30" as="geometry" />
        </mxCell>
        <mxCell id="IY1wqJiJF90ns-83pZvN-174" value="" style="rounded=0;whiteSpace=wrap;html=1;strokeColor=none;fillColor=#d5e8d4;labelBackgroundColor=none;" parent="IY1wqJiJF90ns-83pZvN-215" vertex="1">
          <mxGeometry y="2" width="37" height="26" as="geometry" />
        </mxCell>
        <mxCell id="IY1wqJiJF90ns-83pZvN-175" value="association table" style="text;html=1;align=center;verticalAlign=middle;whiteSpace=wrap;rounded=0;fontColor=#143642;labelBackgroundColor=none;" parent="IY1wqJiJF90ns-83pZvN-215" vertex="1">
          <mxGeometry x="37" width="105" height="30" as="geometry" />
        </mxCell>
        <mxCell id="UZDqHzI7H_X2LJUmhEsC-0" value="1" style="text;html=1;align=center;verticalAlign=middle;whiteSpace=wrap;rounded=1;labelBackgroundColor=none;fontColor=#143642;" parent="WIyWlLk6GJQsqaUBKTNV-1" vertex="1">
          <mxGeometry x="125" y="601.75" width="12" height="21" as="geometry" />
        </mxCell>
        <mxCell id="UZDqHzI7H_X2LJUmhEsC-1" value="&amp;nbsp;- log" style="text;html=1;align=center;verticalAlign=middle;whiteSpace=wrap;rounded=1;labelBackgroundColor=none;fontColor=#143642;" parent="WIyWlLk6GJQsqaUBKTNV-1" vertex="1">
          <mxGeometry x="139" y="601.75" width="58" height="16" as="geometry" />
        </mxCell>
        <mxCell id="UZDqHzI7H_X2LJUmhEsC-2" value="1" style="text;html=1;align=center;verticalAlign=middle;whiteSpace=wrap;rounded=1;labelBackgroundColor=none;fontColor=#143642;" parent="WIyWlLk6GJQsqaUBKTNV-1" vertex="1">
          <mxGeometry x="218" y="602" width="12" height="21" as="geometry" />
        </mxCell>
        <mxCell id="UZDqHzI7H_X2LJUmhEsC-3" value="&amp;nbsp;- log" style="text;html=1;align=center;verticalAlign=middle;whiteSpace=wrap;rounded=1;labelBackgroundColor=none;fontColor=#143642;" parent="WIyWlLk6GJQsqaUBKTNV-1" vertex="1">
          <mxGeometry x="230" y="604.25" width="58" height="16" as="geometry" />
        </mxCell>
        <mxCell id="kqzMrpncI3JCj6efdYpk-1" value="" style="endArrow=none;html=1;rounded=1;exitX=0;exitY=0.5;exitDx=0;exitDy=0;entryX=1;entryY=0.25;entryDx=0;entryDy=0;labelBackgroundColor=none;fontColor=default;strokeColor=#A8201A;" edge="1" parent="WIyWlLk6GJQsqaUBKTNV-1" source="WaDthbBKja6x3SG7VzEH-95" target="wbWh36v0nCZpc6Vmj600-20">
          <mxGeometry width="50" height="50" relative="1" as="geometry">
            <mxPoint x="-145" y="68" as="sourcePoint" />
            <mxPoint x="-235" y="70" as="targetPoint" />
            <Array as="points" />
          </mxGeometry>
        </mxCell>
        <mxCell id="kqzMrpncI3JCj6efdYpk-2" value="" style="endArrow=none;html=1;rounded=1;exitX=0.5;exitY=1;exitDx=0;exitDy=0;entryX=0.5;entryY=0;entryDx=0;entryDy=0;labelBackgroundColor=none;fontColor=default;strokeColor=#A8201A;" edge="1" parent="WIyWlLk6GJQsqaUBKTNV-1" source="WaDthbBKja6x3SG7VzEH-92" target="X6aHceMRcVpdjTT9wPh7-3">
          <mxGeometry width="50" height="50" relative="1" as="geometry">
            <mxPoint x="117" y="91" as="sourcePoint" />
            <mxPoint x="15" y="91" as="targetPoint" />
            <Array as="points" />
          </mxGeometry>
        </mxCell>
        <mxCell id="kqzMrpncI3JCj6efdYpk-9" value="1" style="text;html=1;align=center;verticalAlign=middle;whiteSpace=wrap;rounded=1;labelBackgroundColor=none;fontColor=#143642;" vertex="1" parent="WIyWlLk6GJQsqaUBKTNV-1">
          <mxGeometry x="167" y="210.75" width="12" height="8.63" as="geometry" />
        </mxCell>
        <mxCell id="kqzMrpncI3JCj6efdYpk-10" value="- address" style="text;html=1;align=center;verticalAlign=middle;whiteSpace=wrap;rounded=1;labelBackgroundColor=none;fontColor=#143642;" vertex="1" parent="WIyWlLk6GJQsqaUBKTNV-1">
          <mxGeometry x="188" y="155.75" width="61" height="9.88" as="geometry" />
        </mxCell>
        <mxCell id="kqzMrpncI3JCj6efdYpk-20" value="- client" style="text;html=1;align=center;verticalAlign=middle;whiteSpace=wrap;rounded=1;labelBackgroundColor=none;fontColor=#143642;" vertex="1" parent="WIyWlLk6GJQsqaUBKTNV-1">
          <mxGeometry x="236" y="372" width="58" height="12" as="geometry" />
        </mxCell>
        <mxCell id="kqzMrpncI3JCj6efdYpk-21" value="1" style="text;html=1;align=center;verticalAlign=middle;whiteSpace=wrap;rounded=1;labelBackgroundColor=none;fontColor=#143642;" vertex="1" parent="WIyWlLk6GJQsqaUBKTNV-1">
          <mxGeometry x="201" y="374" width="35" height="10.75" as="geometry" />
        </mxCell>
        <mxCell id="kqzMrpncI3JCj6efdYpk-23" value="1" style="text;html=1;align=center;verticalAlign=middle;whiteSpace=wrap;rounded=1;labelBackgroundColor=none;fontColor=#143642;" vertex="1" parent="WIyWlLk6GJQsqaUBKTNV-1">
          <mxGeometry x="98" y="373.63" width="35" height="10.75" as="geometry" />
        </mxCell>
        <mxCell id="kqzMrpncI3JCj6efdYpk-24" value="- client" style="text;html=1;align=center;verticalAlign=middle;whiteSpace=wrap;rounded=1;labelBackgroundColor=none;fontColor=#143642;" vertex="1" parent="WIyWlLk6GJQsqaUBKTNV-1">
          <mxGeometry x="133" y="371.63" width="58" height="12" as="geometry" />
        </mxCell>
      </root>
    </mxGraphModel>
  </diagram>
</mxfile>
